<svg width="59" height="60" viewBox="0 0 59 60" fill="none" xmlns="http://www.w3.org/2000/svg">
<g filter="url(#filter0_d)">
<rect x="10" y="8.6151" width="38.8574" height="38.7698" rx="19.3849" fill="white"/>
<path d="M34.0234 37.3849C35.6543 37.3849 36.7969 36.8771 37.8613 35.754C37.9297 35.6759 37.9883 35.6076 38.0566 35.5392C38.5742 34.9435 38.8574 34.2599 38.8574 33.6544C38.8574 32.9318 38.5156 32.2872 37.6855 31.7208L34.834 29.7384C33.916 29.0939 32.8809 29.0646 32.0996 29.8556L31.4453 30.5099C31.1621 30.7931 30.8789 30.8224 30.498 30.5294C30 30.1681 29.1504 29.4162 28.5449 28.8204C27.9688 28.2443 27.3535 27.5509 26.9922 27.0236C26.7188 26.6427 26.7285 26.3693 27.0215 26.0763L27.666 25.4318C28.457 24.6505 28.4277 23.6056 27.7832 22.6876L25.7031 19.7384C25.1758 18.9865 24.4824 18.6154 23.7402 18.6154C23.125 18.6056 22.4902 18.8595 21.8945 19.3673C21.8164 19.4259 21.748 19.4943 21.6895 19.5431C20.5176 20.6466 20 21.7599 20 23.5372C20 26.3986 21.5039 29.6017 24.707 32.7658C27.9004 35.9103 31.0156 37.3849 34.0234 37.3849ZM34.0039 35.6661C31.6504 35.6954 28.8379 34.2111 26.0352 31.4474C23.2129 28.674 21.7285 25.7638 21.7578 23.4103C21.7676 22.4533 22.1094 21.6036 22.7832 21.0275C22.8516 20.9591 22.9297 20.9005 23.0078 20.8419C23.2422 20.6466 23.4961 20.5392 23.7402 20.5392C24.0039 20.5392 24.248 20.6564 24.4336 20.9298L26.0938 23.3908C26.3379 23.7619 26.3379 24.1818 25.9668 24.5236L25.3418 25.1486C24.5508 25.8908 24.6289 26.7111 25.0488 27.3556C25.498 28.0392 26.4551 29.1232 27.3633 30.0119C28.3887 31.0177 29.5605 32.0626 30.166 32.4728C30.8105 32.9025 31.6309 32.9708 32.3828 32.1896L32.998 31.5548C33.3398 31.1935 33.7598 31.1935 34.1309 31.4279L36.4844 32.9904C36.7773 33.1759 36.8848 33.4201 36.8848 33.6837C36.8848 33.9181 36.7871 34.172 36.582 34.4162C36.5234 34.4943 36.4648 34.5626 36.3965 34.6408C35.8203 35.3048 34.9609 35.6564 34.0039 35.6661Z" fill="#DE4E4E"/>
</g>
<defs>
<filter id="filter0_d" x="0" y="0.615097" width="58.8574" height="58.7698" filterUnits="userSpaceOnUse" color-interpolation-filters="sRGB">
<feFlood flood-opacity="0" result="BackgroundImageFix"/>
<feColorMatrix in="SourceAlpha" type="matrix" values="0 0 0 0 0 0 0 0 0 0 0 0 0 0 0 0 0 0 127 0"/>
<feOffset dy="2"/>
<feGaussianBlur stdDeviation="5"/>
<feColorMatrix type="matrix" values="0 0 0 0 0 0 0 0 0 0 0 0 0 0 0 0 0 0 0.1 0"/>
<feBlend mode="normal" in2="BackgroundImageFix" result="effect1_dropShadow"/>
<feBlend mode="normal" in="SourceGraphic" in2="effect1_dropShadow" result="shape"/>
</filter>
</defs>
</svg>
