<svg width="100" height="17" viewBox="0 0 100 17" fill="none" xmlns="http://www.w3.org/2000/svg">
<path d="M3.07072 16.0063C3.3815 16.2489 3.76807 16.1655 4.23045 15.832L8.00525 13.0578L11.7725 15.832C12.2348 16.1655 12.6214 16.2489 12.9322 16.0063C13.243 15.7789 13.3112 15.3924 13.1217 14.8542L11.636 10.4199L15.4411 7.69118C15.8959 7.36524 16.0854 7.00898 15.9642 6.63757C15.8429 6.27373 15.4866 6.09181 14.9257 6.09939L10.2565 6.12971L8.83904 1.67272C8.65712 1.13455 8.39182 0.854091 8.00525 0.854091C7.61109 0.854091 7.34579 1.13455 7.16387 1.67272L5.74643 6.12971L1.0772 6.09939C0.516287 6.09181 0.160031 6.27373 0.0387521 6.63757C-0.0901065 7.00898 0.106971 7.36524 0.561766 7.69118L4.36688 10.4199L2.88122 14.8542C2.69172 15.3924 2.75994 15.7789 3.07072 16.0063Z" fill="#E89E0E"/>
<path d="M24.0707 16.0063C24.3815 16.2489 24.7681 16.1655 25.2304 15.832L29.0052 13.0578L32.7725 15.832C33.2348 16.1655 33.6214 16.2489 33.9322 16.0063C34.243 15.7789 34.3112 15.3924 34.1217 14.8542L32.636 10.4199L36.4411 7.69118C36.8959 7.36524 37.0854 7.00898 36.9642 6.63757C36.8429 6.27373 36.4866 6.09181 35.9257 6.09939L31.2565 6.12971L29.839 1.67272C29.6571 1.13455 29.3918 0.854091 29.0052 0.854091C28.6111 0.854091 28.3458 1.13455 28.1639 1.67272L26.7464 6.12971L22.0772 6.09939C21.5163 6.09181 21.16 6.27373 21.0388 6.63757C20.9099 7.00898 21.107 7.36524 21.5618 7.69118L25.3669 10.4199L23.8812 14.8542C23.6917 15.3924 23.7599 15.7789 24.0707 16.0063Z" fill="#E89E0E"/>
<path d="M45.0707 16.0063C45.3815 16.2489 45.7681 16.1655 46.2304 15.832L50.0052 13.0578L53.7725 15.832C54.2348 16.1655 54.6214 16.2489 54.9322 16.0063C55.243 15.7789 55.3112 15.3924 55.1217 14.8542L53.636 10.4199L57.4411 7.69118C57.8959 7.36524 58.0854 7.00898 57.9642 6.63757C57.8429 6.27373 57.4866 6.09181 56.9257 6.09939L52.2565 6.12971L50.839 1.67272C50.6571 1.13455 50.3918 0.854091 50.0052 0.854091C49.6111 0.854091 49.3458 1.13455 49.1639 1.67272L47.7464 6.12971L43.0772 6.09939C42.5163 6.09181 42.16 6.27373 42.0388 6.63757C41.9099 7.00898 42.107 7.36524 42.5618 7.69118L46.3669 10.4199L44.8812 14.8542C44.6917 15.3924 44.7599 15.7789 45.0707 16.0063Z" fill="#E89E0E"/>
<path d="M66.0707 16.0063C66.3815 16.2489 66.7681 16.1655 67.2304 15.832L71.0052 13.0578L74.7725 15.832C75.2348 16.1655 75.6214 16.2489 75.9322 16.0063C76.243 15.7789 76.3112 15.3924 76.1217 14.8542L74.636 10.4199L78.4411 7.69118C78.8959 7.36524 79.0854 7.00898 78.9642 6.63757C78.8429 6.27373 78.4866 6.09181 77.9257 6.09939L73.2565 6.12971L71.839 1.67272C71.6571 1.13455 71.3918 0.854091 71.0052 0.854091C70.6111 0.854091 70.3458 1.13455 70.1639 1.67272L68.7464 6.12971L64.0772 6.09939C63.5163 6.09181 63.16 6.27373 63.0388 6.63757C62.9099 7.00898 63.107 7.36524 63.5618 7.69118L67.3669 10.4199L65.8812 14.8542C65.6917 15.3924 65.7599 15.7789 66.0707 16.0063Z" fill="#C4C4C4"/>
<path d="M87.0707 16.0063C87.3815 16.2489 87.7681 16.1655 88.2304 15.832L92.0052 13.0578L95.7725 15.832C96.2348 16.1655 96.6214 16.2489 96.9322 16.0063C97.243 15.7789 97.3112 15.3924 97.1217 14.8542L95.636 10.4199L99.4411 7.69118C99.8959 7.36524 100.085 7.00898 99.9642 6.63757C99.8429 6.27373 99.4866 6.09181 98.9257 6.09939L94.2565 6.12971L92.839 1.67272C92.6571 1.13455 92.3918 0.854091 92.0052 0.854091C91.6111 0.854091 91.3458 1.13455 91.1639 1.67272L89.7464 6.12971L85.0772 6.09939C84.5163 6.09181 84.16 6.27373 84.0388 6.63757C83.9099 7.00898 84.107 7.36524 84.5618 7.69118L88.3669 10.4199L86.8812 14.8542C86.6917 15.3924 86.7599 15.7789 87.0707 16.0063Z" fill="#C4C4C4"/>
</svg>
