<svg width="60" height="60" viewBox="0 0 60 60" fill="none" xmlns="http://www.w3.org/2000/svg">
<g filter="url(#filter0_d)">
<rect x="10.3255" y="8.7373" width="39.4922" height="38.5254" rx="19.2627" fill="white"/>
<path d="M21.6732 36.9502C22.015 36.9502 22.3079 36.833 22.7083 36.6084L27.1028 34.2256L31.9075 36.9209C32.3275 37.1455 32.7571 37.2627 33.1673 37.2627C33.5775 37.2627 33.9876 37.1553 34.3587 36.9404L38.8411 34.4111C39.515 34.0303 39.8177 33.4932 39.8177 32.751V20.3682C39.8177 19.5381 39.3001 19.0303 38.47 19.0303C38.1282 19.0303 37.8353 19.167 37.4349 19.3818L32.8841 21.9111L28.1185 19.0596C27.7376 18.8447 27.3275 18.7373 26.9173 18.7373C26.5169 18.7373 26.1165 18.835 25.765 19.04L21.3021 21.5596C20.6282 21.9404 20.3255 22.458 20.3255 23.2002V35.6221C20.3255 36.4521 20.8431 36.9502 21.6732 36.9502ZM26.1653 32.4971L22.5423 34.4893C22.4642 34.5283 22.4056 34.5479 22.3568 34.5479C22.2396 34.5479 22.1712 34.46 22.1712 34.3135V23.7373C22.1712 23.4541 22.2689 23.2881 22.5228 23.1416L25.8821 21.1982C25.9798 21.1396 26.0677 21.1006 26.1653 21.042V32.4971ZM28.0501 32.4971V21.2764C28.138 21.3252 28.2454 21.3838 28.3333 21.4424L32.0931 23.6885V34.7627C31.9759 34.6943 31.8587 34.6357 31.7318 34.5674L28.0501 32.4971ZM33.9778 34.8799V23.4932L37.6009 21.5107C37.6595 21.4814 37.7181 21.4521 37.7669 21.4521C37.8841 21.4521 37.972 21.5498 37.972 21.6768V32.1943C37.972 32.4775 37.8743 32.6436 37.6204 32.79L34.3978 34.6455C34.261 34.7334 34.1146 34.8115 33.9778 34.8799Z" fill="#DE4E4E"/>
</g>
<defs>
<filter id="filter0_d" x="0.3255" y="0.737305" width="59.4922" height="58.5254" filterUnits="userSpaceOnUse" color-interpolation-filters="sRGB">
<feFlood flood-opacity="0" result="BackgroundImageFix"/>
<feColorMatrix in="SourceAlpha" type="matrix" values="0 0 0 0 0 0 0 0 0 0 0 0 0 0 0 0 0 0 127 0"/>
<feOffset dy="2"/>
<feGaussianBlur stdDeviation="5"/>
<feColorMatrix type="matrix" values="0 0 0 0 0 0 0 0 0 0 0 0 0 0 0 0 0 0 0.1 0"/>
<feBlend mode="normal" in2="BackgroundImageFix" result="effect1_dropShadow"/>
<feBlend mode="normal" in="SourceGraphic" in2="effect1_dropShadow" result="shape"/>
</filter>
</defs>
</svg>
