<svg width="61" height="60" viewBox="0 0 61 60" fill="none" xmlns="http://www.w3.org/2000/svg">
<g filter="url(#filter0_d)">
<rect x="10.819" y="8.30859" width="39.9336" height="39.3828" rx="19.6914" fill="white"/>
<path d="M22.9245 36.6914H38.6471C40.6881 36.6914 41.7526 35.627 41.7526 33.6152V22.3945C41.7526 20.3828 40.6881 19.3086 38.6471 19.3086H22.9245C20.903 19.3086 19.819 20.373 19.819 22.3945V33.6152C19.819 35.627 20.903 36.6914 22.9245 36.6914ZM23.0905 34.6895C22.2702 34.6895 21.821 34.2793 21.821 33.4102V22.5898C21.821 21.7305 22.2702 21.3105 23.0905 21.3105H38.4909C39.3014 21.3105 39.7604 21.7305 39.7604 22.5898V33.4102C39.7604 34.2793 39.3014 34.6895 38.4909 34.6895H23.0905ZM24.6042 24.7578C25.0827 24.7578 25.4635 24.377 25.4635 23.8984C25.4635 23.4199 25.0827 23.0293 24.6042 23.0293C24.1354 23.0293 23.735 23.4297 23.735 23.8984C23.735 24.3672 24.1354 24.7578 24.6042 24.7578ZM27.1725 24.5039H37.2604C37.6022 24.5039 37.8756 24.2305 37.8756 23.8984C37.8756 23.5566 37.5924 23.2832 37.2604 23.2832H27.1725C26.8307 23.2832 26.5573 23.5566 26.5573 23.8984C26.5573 24.2305 26.821 24.5039 27.1725 24.5039ZM24.6042 27.4434C25.0827 27.4434 25.4635 27.0625 25.4635 26.584C25.4635 26.1055 25.0827 25.7246 24.6042 25.7246C24.1354 25.7246 23.735 26.1152 23.735 26.584C23.735 27.0527 24.1354 27.4434 24.6042 27.4434ZM27.1725 27.1992H32.8561C33.1881 27.1992 33.4713 26.916 33.4713 26.584C33.4713 26.252 33.1979 25.9688 32.8561 25.9688H27.1725C26.8307 25.9688 26.5573 26.252 26.5573 26.584C26.5573 26.916 26.8307 27.1992 27.1725 27.1992ZM24.6042 30.1191C25.0827 30.1191 25.4635 29.7383 25.4635 29.2598C25.4635 28.791 25.0827 28.4102 24.6042 28.4102C24.1256 28.4102 23.735 28.8008 23.735 29.2598C23.735 29.7383 24.1256 30.1191 24.6042 30.1191ZM27.1725 29.875H37.2604C37.6022 29.875 37.8756 29.6016 37.8756 29.2598C37.8756 28.9277 37.6022 28.6543 37.2604 28.6543H27.1725C26.821 28.6543 26.5573 28.9277 26.5573 29.2598C26.5573 29.6016 26.821 29.875 27.1725 29.875ZM24.6042 32.9414C25.0827 32.9414 25.4635 32.5605 25.4635 32.082C25.4635 31.6035 25.0827 31.2227 24.6042 31.2227C24.1354 31.2227 23.735 31.6133 23.735 32.082C23.735 32.5508 24.1354 32.9414 24.6042 32.9414ZM27.1725 32.6973H32.8561C33.1881 32.6973 33.4713 32.4141 33.4713 32.082C33.4713 31.7402 33.1979 31.4668 32.8561 31.4668H27.1725C26.821 31.4668 26.5573 31.7402 26.5573 32.082C26.5573 32.4141 26.8307 32.6973 27.1725 32.6973Z" fill="#DE4E4E"/>
</g>
<defs>
<filter id="filter0_d" x="0.819" y="0.308594" width="59.9336" height="59.3828" filterUnits="userSpaceOnUse" color-interpolation-filters="sRGB">
<feFlood flood-opacity="0" result="BackgroundImageFix"/>
<feColorMatrix in="SourceAlpha" type="matrix" values="0 0 0 0 0 0 0 0 0 0 0 0 0 0 0 0 0 0 127 0"/>
<feOffset dy="2"/>
<feGaussianBlur stdDeviation="5"/>
<feColorMatrix type="matrix" values="0 0 0 0 0 0 0 0 0 0 0 0 0 0 0 0 0 0 0.1 0"/>
<feBlend mode="normal" in2="BackgroundImageFix" result="effect1_dropShadow"/>
<feBlend mode="normal" in="SourceGraphic" in2="effect1_dropShadow" result="shape"/>
</filter>
</defs>
</svg>
