<svg width="61" height="62" viewBox="0 0 61 62" fill="none" xmlns="http://www.w3.org/2000/svg">
<g filter="url(#filter0_d)">
<rect x="10.3505" y="8.85291" width="40.2991" height="40.2942" rx="20.1471" fill="white"/>
<path d="M29.6339 33.0338L31.3136 31.3541C30.3859 31.2467 29.6144 30.9049 29.1066 30.3971C27.6124 28.903 27.6124 26.8131 29.0968 25.3385L32.2413 22.194C33.7355 20.6998 35.8156 20.6998 37.3097 22.194C38.8038 23.6881 38.8038 25.778 37.3195 27.2623L36.089 28.483C36.4406 29.2936 36.587 30.3287 36.3331 31.2174L38.882 28.6783C41.2452 26.3444 41.2355 22.9948 38.8722 20.6315C36.5089 18.2584 33.1691 18.2682 30.8253 20.6119L27.5245 23.9127C25.1808 26.2662 25.171 29.5963 27.5343 31.9596C28.0128 32.4381 28.7355 32.8483 29.6339 33.0338ZM31.3722 24.9674L29.6925 26.6471C30.6202 26.7448 31.3917 27.0963 31.8995 27.5944C33.3937 29.0983 33.3937 31.1783 31.9093 32.6627L28.755 35.8073C27.2706 37.3014 25.1906 37.2916 23.6964 35.8073C22.2023 34.3033 22.2023 32.2233 23.6866 30.7389L24.9171 29.5182C24.5656 28.7076 24.4191 27.6725 24.673 26.7838L22.1144 29.3229C19.7609 31.6569 19.7609 35.0065 22.1241 37.3698C24.4972 39.7428 27.837 39.733 30.1808 37.3795L33.4718 34.0885C35.8253 31.735 35.8351 28.3951 33.462 26.0319C32.9835 25.5533 32.2706 25.153 31.3722 24.9674Z" fill="#DE4E4E"/>
</g>
<defs>
<filter id="filter0_d" x="0.350464" y="0.852905" width="60.2991" height="60.2942" filterUnits="userSpaceOnUse" color-interpolation-filters="sRGB">
<feFlood flood-opacity="0" result="BackgroundImageFix"/>
<feColorMatrix in="SourceAlpha" type="matrix" values="0 0 0 0 0 0 0 0 0 0 0 0 0 0 0 0 0 0 127 0"/>
<feOffset dy="2"/>
<feGaussianBlur stdDeviation="5"/>
<feColorMatrix type="matrix" values="0 0 0 0 0 0 0 0 0 0 0 0 0 0 0 0 0 0 0.1 0"/>
<feBlend mode="normal" in2="BackgroundImageFix" result="effect1_dropShadow"/>
<feBlend mode="normal" in="SourceGraphic" in2="effect1_dropShadow" result="shape"/>
</filter>
</defs>
</svg>
