<svg width="17" height="16" viewBox="0 0 17 16" fill="none" xmlns="http://www.w3.org/2000/svg">
<path d="M5.97656 13.0737L9.86133 15.2485C10.0024 15.3232 10.1353 15.3896 10.2847 15.4229V2.53174L6.48291 0.21582C6.31689 0.116211 6.14258 0.0415039 5.97656 0V13.0737ZM0 14.2441C0 14.8584 0.365234 15.1987 0.95459 15.1987C1.16211 15.1987 1.37793 15.1323 1.63525 14.9912L4.88086 13.2397V0.116211C4.72314 0.190918 4.54883 0.273926 4.38281 0.365234L0.722168 2.46533C0.232422 2.73926 0 3.12939 0 3.67725V14.2441ZM11.3804 15.3979C11.4634 15.373 11.5464 15.3398 11.6294 15.2817L15.6802 12.9907C16.1782 12.7085 16.4023 12.3184 16.4023 11.7705V1.22021C16.4023 0.597656 16.0371 0.265625 15.4395 0.265625C15.2236 0.265625 15.0078 0.32373 14.7422 0.473145L11.3804 2.34082V15.3979Z" fill="#DE4E4E"/>
</svg>
