<svg width="13" height="13" viewBox="0 0 13 13" fill="none" xmlns="http://www.w3.org/2000/svg">
<path d="M6.22998 12.8281C9.59424 12.8281 12.3809 10.0352 12.3809 6.6709C12.3809 3.30664 9.58789 0.52002 6.22363 0.52002C2.85938 0.52002 0.0727539 3.30664 0.0727539 6.6709C0.0727539 10.0352 2.86572 12.8281 6.22998 12.8281ZM4.78271 4.37939C4.78271 3.59229 5.43018 2.94482 6.22363 2.94482C7.01074 2.94482 7.66455 3.58594 7.66455 4.37939C7.66455 5.02686 7.24561 5.56006 6.66797 5.73779V8.81641C6.66797 9.71777 6.50928 10.5176 6.22363 10.5176C5.93164 10.5176 5.77295 9.70508 5.77295 8.81641V5.73779C5.20166 5.55371 4.78271 5.02051 4.78271 4.37939ZM5.39209 4.01123C5.39209 4.25879 5.60791 4.48096 5.85547 4.48096C6.10938 4.48096 6.3125 4.25879 6.3125 4.01123C6.31885 3.76367 6.10938 3.54785 5.85547 3.54785C5.60791 3.54785 5.39209 3.76367 5.39209 4.01123Z" fill="black" fill-opacity="0.7"/>
</svg>
